<?xml version="1.0" encoding="UTF-8"?>
<svg version="1.1" xmlns="http://www.w3.org/2000/svg" width="183" height="203">
<path d="M0 0 C4.26087489 3.00071418 8.10409037 6.02439327 10 11 C11.62744599 25.98207628 6.01011882 41.01829849 -1 54 C-0.30132812 54.04898438 0.39734375 54.09796875 1.1171875 54.1484375 C2.02726562 54.22320312 2.93734375 54.29796875 3.875 54.375 C4.77992188 54.44460937 5.68484375 54.51421875 6.6171875 54.5859375 C9 55 9 55 11 57 C10.78412622 61.85716006 9.51929123 64.66118524 6 68 C0.6489842 70.96619501 -3.98994637 71.11944667 -10 71 C-10.10957031 72.15757813 -10.21914062 73.31515625 -10.33203125 74.5078125 C-10.49157481 76.04693863 -10.65176539 77.58599779 -10.8125 79.125 C-10.91788086 80.26582031 -10.91788086 80.26582031 -11.02539062 81.4296875 C-11.66320409 87.34859647 -12.90837085 91.96490137 -17.3125 96.25 C-22.84685306 99.85376478 -28.49015442 100.94497758 -35 100 C-39.52685278 97.73657361 -41.79190193 95.50182876 -44 91 C-44.61430349 88.24728486 -44.91429206 85.49226779 -45.1875 82.6875 C-45.26935547 81.94693359 -45.35121094 81.20636719 -45.43554688 80.44335938 C-45.63442588 78.63005077 -45.81869827 76.81515031 -46 75 C-46.556875 75.02320312 -47.11375 75.04640625 -47.6875 75.0703125 C-51.71105571 75.16546416 -55.24605111 75.07076154 -59.125 73.9375 C-62.93953797 72.72043144 -62.93953797 72.72043144 -66.5625 73.75 C-70.33178422 74.02412976 -70.81185917 73.84877872 -73.625 71.625 C-82.19157033 63.172905 -84.80697139 51.24152906 -88 40 C-88.27199219 39.04609375 -88.54398438 38.0921875 -88.82421875 37.109375 C-91.07596856 27.71909919 -91.95919762 15.47249841 -87.2734375 6.765625 C-84.3551686 2.71943622 -80.5954609 -0.05963484 -76 -2 C-73.80517578 -2.24291992 -73.80517578 -2.24291992 -71.4453125 -2.23046875 C-70.58292969 -2.22853516 -69.72054687 -2.22660156 -68.83203125 -2.22460938 C-67.93871094 -2.21236328 -67.04539062 -2.20011719 -66.125 -2.1875 C-65.23941406 -2.18685547 -64.35382813 -2.18621094 -63.44140625 -2.18554688 C-58.83044457 -2.15462388 -54.55289972 -1.76577824 -50 -1 C-48.41528203 -1.49522437 -46.83148922 -1.99417403 -45.2578125 -2.5234375 C-40.99664953 -3.42285252 -36.63817724 -3.08170468 -32.3046875 -2.97265625 C-5.9901183 -3.19038909 -5.9901183 -3.19038909 0 0 Z " fill="#E5E9EE" transform="translate(128,36)"/>
<path d="M0 0 C7.85793373 3.20899911 14.42357102 8.89959374 18.48828125 16.3515625 C18.48828125 17.3415625 18.48828125 18.3315625 18.48828125 19.3515625 C17.23015625 19.4546875 15.97203125 19.5578125 14.67578125 19.6640625 C12.2626601 19.98865933 10.64915263 20.26609958 8.48828125 21.4140625 C6.45031803 25.36261625 6.87432159 29.42296604 8.1796875 33.5234375 C10.37966194 38.71500898 13.27758654 43.44874649 16.31640625 48.1875 C17.48828125 50.3515625 17.48828125 50.3515625 17.48828125 53.3515625 C17.01068359 53.79846436 16.53308594 54.24536621 16.04101562 54.70581055 C13.91534041 56.95882574 13.93648635 58.62660644 13.64453125 61.68359375 C13.53238281 62.72966797 13.42023438 63.77574219 13.3046875 64.85351562 C13.20027344 65.94599609 13.09585938 67.03847656 12.98828125 68.1640625 C11.66989968 81.81175318 11.66989968 81.81175318 8.48828125 86.3515625 C5.76146571 88.27374394 3.29275308 88.71576229 -0.01171875 88.8515625 C-0.76453125 88.903125 -1.51734375 88.9546875 -2.29296875 89.0078125 C-5.04325501 88.19434755 -6.28787192 86.93916528 -7.75244141 84.49121094 C-9.82994674 78.63678754 -8.97571795 71.77885388 -8.91210938 65.65234375 C-8.92306641 64.51925781 -8.93402344 63.38617188 -8.9453125 62.21875 C-8.93556396 61.18862793 -8.92581543 60.15850586 -8.91577148 59.09716797 C-9.71563827 55.41207914 -11.44310553 54.3851457 -14.51171875 52.3515625 C-14.10389031 49.42879199 -13.73530522 46.83930904 -12.5 44.14453125 C-11.22493889 40.54109769 -11.10557986 37.12883344 -11.07421875 33.3515625 C-11.04134766 32.65289062 -11.00847656 31.95421875 -10.97460938 31.234375 C-10.93363234 27.28567886 -11.37595352 25.52690674 -13.81640625 22.375 C-17.29495705 19.76356621 -19.25014365 19.8866634 -23.51171875 20.3515625 C-25.8220879 20.78011245 -25.8220879 20.78011245 -27.51171875 21.3515625 C-26.86590512 13.98928717 -25.7557958 8.04675452 -19.94921875 2.9765625 C-14.06763 -1.75400566 -7.27023384 -1.87691885 0 0 Z " fill="#346393" transform="translate(98.51171875,40.6484375)"/>
<path d="M0 0 C2.4375 2.0625 2.4375 2.0625 4 4 C4.680625 3.360625 5.36125 2.72125 6.0625 2.0625 C9.56759997 -0.39852764 11.74126895 -0.85057084 16 -1 C20.53282535 -0.02233179 22.97291512 1.50720976 26 5 C26.33 3.35 26.66 1.7 27 0 C28.32 0 29.64 0 31 0 C31 6.6 31 13.2 31 20 C35.29 20 39.58 20 44 20 C44 20.99 44 21.98 44 23 C40.58444097 23.36544156 37.1674656 23.71537866 33.75 24.0625 C32.78191406 24.16626953 31.81382812 24.27003906 30.81640625 24.37695312 C29.88183594 24.47041016 28.94726562 24.56386719 27.984375 24.66015625 C27.12553711 24.74918213 26.26669922 24.83820801 25.38183594 24.92993164 C23.00817652 24.99975946 21.27688191 24.60549856 19 24 C17.081875 24.061875 17.081875 24.061875 15.125 24.125 C11.09074857 24.20026588 8.51715042 23.00980024 5 21 C2.8794682 20.76915606 2.8794682 20.76915606 1.4375 22.5 C-2.24597724 24.76675523 -5.78017291 24.58881308 -10 24 C-12.875 22.5 -12.875 22.5 -15 21 C-18.18490007 20.7226499 -18.18490007 20.7226499 -21 23 C-25.07490752 23.33957563 -26.53001271 23.31332486 -30 21 C-30.70052461 18.336937 -30.77744818 15.75964263 -31 13 C-31.66 13 -32.32 13 -33 13 C-33.33 15.97 -33.66 18.94 -34 22 C-35.32 22.33 -36.64 22.66 -38 23 C-38.763125 23.86625 -39.52625 24.7325 -40.3125 25.625 C-43 28 -43 28 -46.6875 28.0625 C-50 27 -50 27 -51.125 25 C-51.41375 24.34 -51.7025 23.68 -52 23 C-54.55519921 22.18828772 -54.55519921 22.18828772 -57 22 C-57 18.7 -57 15.4 -57 12 C-57.66 12 -58.32 12 -59 12 C-58.773125 13.0725 -58.54625 14.145 -58.3125 15.25 C-58 19 -58 19 -58.9375 21.4375 C-61.59615271 23.45163084 -63.78594709 23.43013881 -67.05859375 23.2734375 C-69.35065289 22.95061227 -71.07354129 22.28430581 -73 21 C-73.66 21.66 -74.32 22.32 -75 23 C-78.375 23.4375 -78.375 23.4375 -82 23 C-84.4375 20.75 -84.4375 20.75 -86 18 C-86 16.68 -86 15.36 -86 14 C-86.99 14.33 -87.98 14.66 -89 15 C-90.39439664 15.06665376 -91.79169875 15.08538199 -93.1875 15.0625 C-95.0746875 15.0315625 -95.0746875 15.0315625 -97 15 C-97 17.64 -97 20.28 -97 23 C-97.99 23 -98.98 23 -100 23 C-100 16.4 -100 9.8 -100 3 C-90.0390625 2.8046875 -90.0390625 2.8046875 -87 3 C-84.64046906 5.35953094 -84.50858587 6.77895617 -84 10 C-83.67 9.67 -83.34 9.34 -83 9 C-81.00390625 8.83203125 -81.00390625 8.83203125 -78.5625 8.8125 C-77.35787109 8.79123047 -77.35787109 8.79123047 -76.12890625 8.76953125 C-74 9 -74 9 -72 11 C-71.34 10.34 -70.68 9.68 -70 9 C-67.9765625 8.8046875 -67.9765625 8.8046875 -65.625 8.875 C-64.85414062 8.89304688 -64.08328125 8.91109375 -63.2890625 8.9296875 C-62.53367188 8.95289063 -61.77828125 8.97609375 -61 9 C-59.68 9 -58.36 9 -57 9 C-57 7.68 -57 6.36 -57 5 C-56.01 5 -55.02 5 -54 5 C-54 6.32 -54 7.64 -54 9 C-52.44104004 8.96072388 -52.44104004 8.96072388 -50.85058594 8.9206543 C-46.98931462 8.83005593 -43.12813691 8.77271696 -39.26611328 8.7253418 C-37.59570511 8.70021922 -35.92540663 8.66611448 -34.25537109 8.62280273 C-31.8522638 8.56204601 -29.45061096 8.53376979 -27.046875 8.51171875 C-25.9294693 8.47300911 -25.9294693 8.47300911 -24.78948975 8.43351746 C-22.66699219 8.43237305 -22.66699219 8.43237305 -19 9 C-16.68457031 11.46801758 -16.68457031 11.46801758 -15 14 C-14.01 14.33 -13.02 14.66 -12 15 C-11.70351562 15.66515625 -11.40703125 16.3303125 -11.1015625 17.015625 C-10.73804687 17.67046875 -10.37453125 18.3253125 -10 19 C-7.81458448 19.6993514 -7.81458448 19.6993514 -5.375 19.75 C-4.55773437 19.80671875 -3.74046875 19.8634375 -2.8984375 19.921875 C-1.95871094 19.96054688 -1.95871094 19.96054688 -1 20 C-1.33 18.35 -1.66 16.7 -2 15 C-2.75925781 14.82984375 -3.51851563 14.6596875 -4.30078125 14.484375 C-5.29464844 14.24203125 -6.28851563 13.9996875 -7.3125 13.75 C-8.29863281 13.51796875 -9.28476563 13.2859375 -10.30078125 13.046875 C-13.3882094 11.84943543 -14.42858517 10.88362722 -16 8 C-15.875 4.875 -15.875 4.875 -15 2 C-9.96315496 -1.3578967 -5.86855225 -1.38711235 0 0 Z M-10 3 C-10.33 4.65 -10.66 6.3 -11 8 C-6.69677317 9.46939453 -2.37702633 10.77443263 2 12 C2.33 10.68 2.66 9.36 3 8 C1.68 8 0.36 8 -1 8 C-1.144375 7.360625 -1.28875 6.72125 -1.4375 6.0625 C-1.81007181 4.02454854 -1.81007181 4.02454854 -3 3 C-5.33297433 2.95907063 -7.66705225 2.95758277 -10 3 Z M8.5625 4.4375 C6.24169328 8.24362301 6.23525201 11.65846194 7 16 C8.31379818 18.73061576 8.31379818 18.73061576 11 20 C14.49392047 20.60458181 17.70724082 20.66723054 20.9375 19 C22.63437595 15.80588056 23.13222615 12.57010618 23 9 C21.66048669 6.00204165 20.9444025 4.47220125 18 3 C14.2378404 2.65165189 11.85871947 2.49357569 8.5625 4.4375 Z M-97 6 C-97 7.98 -97 9.96 -97 12 C-93.58343976 12.16677282 -93.58343976 12.16677282 -90 12 C-89.34 11.34 -88.68 10.68 -88 10 C-88.3185177 7.89179203 -88.3185177 7.89179203 -89 6 C-91.64 6 -94.28 6 -97 6 Z M-67 11 C-67 11.99 -67 12.98 -67 14 C-65.35 14 -63.7 14 -62 14 C-62 13.34 -62 12.68 -62 12 C-63.65 11.67 -65.3 11.34 -67 11 Z M-25 11 C-25.99 12.485 -25.99 12.485 -27 14 C-24.69 14 -22.38 14 -20 14 C-21.37485532 12.45833358 -21.37485532 12.45833358 -23 11 C-23.66 11 -24.32 11 -25 11 Z M-79 11 C-79.99 11.66 -80.98 12.32 -82 13 C-82.41666667 15.5 -82.41666667 15.5 -82 18 C-81.34 18.66 -80.68 19.32 -80 20 C-77.39719432 19.67958603 -77.39719432 19.67958603 -75 19 C-75 17.02 -75 15.04 -75 13 C-76.32 12.34 -77.64 11.68 -79 11 Z M-54 12 C-54 14.31 -54 16.62 -54 19 C-53.01 19.495 -53.01 19.495 -52 20 C-52 17.36 -52 14.72 -52 12 C-52.66 12 -53.32 12 -54 12 Z M-46 11 C-46.99 11.66 -47.98 12.32 -49 13 C-49.33343551 15.54207971 -49.33343551 15.54207971 -49 18 C-47.9404123 19.28322547 -47.9404123 19.28322547 -45.5 19.125 C-43.0595877 19.28322547 -43.0595877 19.28322547 -42 18 C-41.95936168 16.33382885 -41.957279 14.66611905 -42 13 C-43.32 12.34 -44.64 11.68 -46 11 Z M-71 15 C-71 15.66 -71 16.32 -71 17 C-70.34 16.67 -69.68 16.34 -69 16 C-69.66 15.67 -70.32 15.34 -71 15 Z M26 16 C25.34 17.65 24.68 19.3 24 21 C24.99 21.33 25.98 21.66 27 22 C27 20.02 27 18.04 27 16 C26.67 16 26.34 16 26 16 Z M-68 17 C-67.67 17.99 -67.34 18.98 -67 20 C-65.35 19.67 -63.7 19.34 -62 19 C-62.33 18.34 -62.66 17.68 -63 17 C-64.65 17 -66.3 17 -68 17 Z M-27 17 C-26.67 17.99 -26.34 18.98 -26 20 C-23.52733235 19.65555119 -23.52733235 19.65555119 -21 19 C-20.67 18.34 -20.34 17.68 -20 17 C-22.31 17 -24.62 17 -27 17 Z M-49 22 C-48.67 22.66 -48.34 23.32 -48 24 C-46.02 24 -44.04 24 -42 24 C-42 23.34 -42 22.68 -42 22 C-44.31 22 -46.62 22 -49 22 Z " fill="#191919" transform="translate(122,148)"/>
<path d="M0 0 C4.26087489 3.00071418 8.10409037 6.02439327 10 11 C11.62744599 25.98207628 6.01011882 41.01829849 -1 54 C-0.30132812 54.04898438 0.39734375 54.09796875 1.1171875 54.1484375 C2.02726562 54.22320312 2.93734375 54.29796875 3.875 54.375 C4.77992188 54.44460937 5.68484375 54.51421875 6.6171875 54.5859375 C9 55 9 55 11 57 C10.78412622 61.85716006 9.51929123 64.66118524 6 68 C0.6489842 70.96619501 -3.98994637 71.11944667 -10 71 C-10.10957031 72.15757813 -10.21914062 73.31515625 -10.33203125 74.5078125 C-10.49157481 76.04693863 -10.65176539 77.58599779 -10.8125 79.125 C-10.91788086 80.26582031 -10.91788086 80.26582031 -11.02539062 81.4296875 C-11.66320409 87.34859647 -12.90837085 91.96490137 -17.3125 96.25 C-22.84685306 99.85376478 -28.49015442 100.94497758 -35 100 C-39.52685278 97.73657361 -41.79190193 95.50182876 -44 91 C-44.61430349 88.24728486 -44.91429206 85.49226779 -45.1875 82.6875 C-45.26935547 81.94693359 -45.35121094 81.20636719 -45.43554688 80.44335938 C-45.63442588 78.63005077 -45.81869827 76.81515031 -46 75 C-46.556875 75.02320312 -47.11375 75.04640625 -47.6875 75.0703125 C-51.71105571 75.16546416 -55.24605111 75.07076154 -59.125 73.9375 C-62.93953797 72.72043144 -62.93953797 72.72043144 -66.5625 73.75 C-70.33178422 74.02412976 -70.81185917 73.84877872 -73.625 71.625 C-82.19157033 63.172905 -84.80697139 51.24152906 -88 40 C-88.27199219 39.04609375 -88.54398438 38.0921875 -88.82421875 37.109375 C-91.07596856 27.71909919 -91.95919762 15.47249841 -87.2734375 6.765625 C-84.3551686 2.71943622 -80.5954609 -0.05963484 -76 -2 C-73.80517578 -2.24291992 -73.80517578 -2.24291992 -71.4453125 -2.23046875 C-70.58292969 -2.22853516 -69.72054687 -2.22660156 -68.83203125 -2.22460938 C-67.93871094 -2.21236328 -67.04539062 -2.20011719 -66.125 -2.1875 C-65.23941406 -2.18685547 -64.35382813 -2.18621094 -63.44140625 -2.18554688 C-58.83044457 -2.15462388 -54.55289972 -1.76577824 -50 -1 C-48.41528203 -1.49522437 -46.83148922 -1.99417403 -45.2578125 -2.5234375 C-40.99664953 -3.42285252 -36.63817724 -3.08170468 -32.3046875 -2.97265625 C-5.9901183 -3.19038909 -5.9901183 -3.19038909 0 0 Z M-26.56640625 0.07910156 C-29.25329874 0.16416694 -31.93897282 0.26612689 -34.625 0.375 C-35.47787598 0.40561523 -36.33075195 0.43623047 -37.20947266 0.46777344 C-41.61478808 0.67984551 -44.91777525 1.22735826 -49 3 C-52.36457342 3.0187965 -55.67157172 2.36254458 -58.91796875 1.4765625 C-65.60464135 -0.05397044 -72.30199019 0.2665015 -78.27734375 3.7265625 C-82.25586394 6.6676001 -85.15448855 10.02183563 -86 15 C-86.94344452 33.45201963 -83.4336808 53.52319636 -72.0625 68.5625 C-69.16388066 70.58274984 -67.48251444 70.4353143 -64 70 C-61.297651 67.87321134 -61.297651 67.87321134 -58.9375 65.0625 C-53.9060143 59.41102081 -53.9060143 59.41102081 -49 59 C-49.33 59.99 -49.66 60.98 -50 62 C-52.02364324 62.90278912 -54.05752196 63.45383213 -56.1875 64.05859375 C-58.21488824 64.85060773 -58.21488824 64.85060773 -58.75 67.09765625 C-58.8325 67.72542969 -58.915 68.35320312 -59 69 C-55.96905952 72.03094048 -53.41638479 72.34716942 -49.1953125 72.3984375 C-46.14689463 71.84516593 -43.71160031 70.46009247 -41 69 C-41.02320313 70.24136719 -41.04640625 71.48273438 -41.0703125 72.76171875 C-41.08907731 74.4036398 -41.10727675 76.04556738 -41.125 77.6875 C-41.14175781 78.50412109 -41.15851563 79.32074219 -41.17578125 80.16210938 C-41.22097031 85.74295877 -40.58863799 89.55084976 -37.5 94.3125 C-33.54068058 96.98504061 -29.62995219 96.60708694 -25 96 C-20.68087597 94.42940944 -18.41263253 92.86673268 -16 89 C-14.98852016 85.7509056 -14.98852016 85.7509056 -14.3125 82.1875 C-14.06113281 81.00542969 -13.80976562 79.82335937 -13.55078125 78.60546875 C-13.00138542 75.00906911 -12.90234626 71.63178914 -13 68 C-11.5459375 68.0928125 -11.5459375 68.0928125 -10.0625 68.1875 C-4.4310145 68.1875 0.6920743 66.29469003 5.5625 63.5625 C7.45137102 61.86323949 7.45137102 61.86323949 7 58 C2.38 58 -2.24 58 -7 58 C-6.40832031 56.97003906 -5.81664063 55.94007812 -5.20703125 54.87890625 C1.42957126 43.03574943 9.52618215 28.07849827 7 14 C4.77412938 8.2389231 -0.63286619 4.39861165 -5.81640625 1.3359375 C-9.3843043 -0.16126634 -11.77103969 -0.33699685 -15.625 -0.25 C-16.924375 -0.22164062 -18.22375 -0.19328125 -19.5625 -0.1640625 C-24.72708086 0.02241003 -24.72708086 0.02241003 -26.56640625 0.07910156 Z " fill="#0B0B0B" transform="translate(128,36)"/>
<path d="M0 0 C-0.268125 0.515625 -0.53625 1.03125 -0.8125 1.5625 C-5.35131504 10.87901507 -6.28016373 19.0904473 -6.8125 29.3125 C-6.92754883 30.94735352 -6.92754883 30.94735352 -7.04492188 32.61523438 C-7.40073647 39.74438711 -6.59544902 44.78986 -3 51 C-4.37499873 52.70451912 -5.77579293 54.38825686 -7.1875 56.0625 C-8.35345703 57.47208984 -8.35345703 57.47208984 -9.54296875 58.91015625 C-12 61 -12 61 -14.640625 61.0234375 C-19.85413802 58.76194675 -21.88583229 52.5280232 -24.0625 47.5625 C-28.69838319 35.22537413 -33.57303392 18.69877285 -28.8125 5.8125 C-22.3529925 -4.21087371 -10.24980131 -3.72720048 0 0 Z " fill="#356494" transform="translate(75,42)"/>
<path d="M0 0 C2 2 2 2 2.13525391 4.79736328 C2.08288574 5.95993652 2.03051758 7.12250977 1.9765625 8.3203125 C1.925 9.57714844 1.8734375 10.83398438 1.8203125 12.12890625 C1.75543074 13.46094835 1.69032366 14.7929795 1.625 16.125 C1.56676177 17.46480294 1.50945844 18.80464687 1.453125 20.14453125 C1.31129726 23.43020732 1.15985087 26.71515936 1 30 C4.27711364 23.70801951 7.4022858 17.6935369 9.1875 10.8125 C10.04296875 7.51953125 10.04296875 7.51953125 11 5 C11.99 4.67 12.98 4.34 14 4 C12.88219774 16.29582487 7.5888673 26.18069631 2 37 C6.62 37 11.24 37 16 37 C15 42 15 42 13.29296875 43.328125 C12.59816406 43.63234375 11.90335938 43.9365625 11.1875 44.25 C10.50042969 44.56453125 9.81335938 44.8790625 9.10546875 45.203125 C4.62126835 46.90029918 0.81116024 47.09252231 -4 47 C-3.94779297 48.47919922 -3.94779297 48.47919922 -3.89453125 49.98828125 C-3.89985507 54.21858925 -4.68396885 58.09263153 -5.6875 62.1875 C-5.83638672 62.88552734 -5.98527344 63.58355469 -6.13867188 64.30273438 C-7.30555789 69.11213516 -8.79837932 71.39899672 -13 74 C-17.34551491 75.44850497 -21.46339992 75.65118661 -26 75 C-29.62128674 72.3394628 -31.20169069 70.35146911 -32 66 C-32.07766084 64.55901569 -32.10796367 63.11491371 -32.09765625 61.671875 C-32.09443359 60.87265625 -32.09121094 60.0734375 -32.08789062 59.25 C-32.07951172 58.425 -32.07113281 57.6 -32.0625 56.75 C-32.05798828 55.90953125 -32.05347656 55.0690625 -32.04882812 54.203125 C-32.03707961 52.13538599 -32.01914522 50.06768376 -32 48 C-32.89976563 48.49113281 -33.79953125 48.98226562 -34.7265625 49.48828125 C-38.9379075 51.43313867 -41.44014595 51.23585452 -46 51 C-46.33 49.35 -46.66 47.7 -47 46 C-46.06027344 45.60167969 -46.06027344 45.60167969 -45.1015625 45.1953125 C-44.28429687 44.84210938 -43.46703125 44.48890625 -42.625 44.125 C-41.81289062 43.77695313 -41.00078125 43.42890625 -40.1640625 43.0703125 C-37.86197701 42.07553933 -37.86197701 42.07553933 -36 40 C-32.46428571 40.53571429 -32.46428571 40.53571429 -31 42 C-30.34 41.34 -29.68 40.68 -29 40 C-28.98541748 40.76143311 -28.97083496 41.52286621 -28.95581055 42.30737305 C-28.88119459 45.76791888 -28.78457741 49.22751445 -28.6875 52.6875 C-28.66494141 53.88568359 -28.64238281 55.08386719 -28.61914062 56.31835938 C-28.5659668 58.05375977 -28.5659668 58.05375977 -28.51171875 59.82421875 C-28.48553467 60.88729248 -28.45935059 61.95036621 -28.43237305 63.0456543 C-27.94548954 66.37246247 -26.99949512 68.31550396 -25 71 C-22.87012856 71.67613196 -22.87012856 71.67613196 -20.5625 71.4375 C-19.80066406 71.41558594 -19.03882812 71.39367187 -18.25390625 71.37109375 C-15.7498976 70.95882196 -14.11006021 70.41578234 -12 69 C-8.29998153 62.50276756 -8.31696889 53.81223113 -7.73388672 46.51391602 C-7.66572754 45.71655029 -7.59756836 44.91918457 -7.52734375 44.09765625 C-7.47312256 43.38101807 -7.41890137 42.66437988 -7.36303711 41.92602539 C-7 40 -7 40 -5 37 C-4.34 37 -3.68 37 -3 37 C-3.38671875 36.31035156 -3.7734375 35.62070313 -4.171875 34.91015625 C-7.42201967 29.04541501 -10.35987506 23.16029154 -13 17 C-13.495 16.01 -13.495 16.01 -14 15 C-14.56872038 7.9478673 -14.56872038 7.9478673 -12.5 4.5 C-8.85991277 2.31594766 -6.20345267 2.71976982 -2 3 C-1.67 2.34 -1.34 1.68 -1 1 C-0.67 0.67 -0.34 0.34 0 0 Z " fill="#E9EDF1" transform="translate(119,57)"/>
<path d="M0 0 C2.4375 2.0625 2.4375 2.0625 4 4 C4.680625 3.360625 5.36125 2.72125 6.0625 2.0625 C9.56759997 -0.39852764 11.74126895 -0.85057084 16 -1 C20.53282535 -0.02233179 22.97291512 1.50720976 26 5 C26.33 3.35 26.66 1.7 27 0 C28.32 0 29.64 0 31 0 C31 6.6 31 13.2 31 20 C35.29 20 39.58 20 44 20 C44 20.99 44 21.98 44 23 C40.58444097 23.36544156 37.1674656 23.71537866 33.75 24.0625 C32.78191406 24.16626953 31.81382812 24.27003906 30.81640625 24.37695312 C29.88183594 24.47041016 28.94726562 24.56386719 27.984375 24.66015625 C27.12553711 24.74918213 26.26669922 24.83820801 25.38183594 24.92993164 C23.00817652 24.99975946 21.27688191 24.60549856 19 24 C17.081875 24.061875 17.081875 24.061875 15.125 24.125 C11.09074857 24.20026588 8.51715042 23.00980024 5 21 C2.8794682 20.76915606 2.8794682 20.76915606 1.4375 22.5 C-2.25079357 24.76971912 -5.77575536 24.57979828 -10 24 C-12.41869578 22.8410416 -14.12322096 21.87677904 -16 20 C-16.04063832 18.33382885 -16.042721 16.66611905 -16 15 C-14.68 15 -13.36 15 -12 15 C-11.64808594 15.96679688 -11.64808594 15.96679688 -11.2890625 16.953125 C-10.18838927 19.2077908 -10.18838927 19.2077908 -7.8359375 19.609375 C-6.61777344 19.67898437 -6.61777344 19.67898437 -5.375 19.75 C-4.55773437 19.80671875 -3.74046875 19.8634375 -2.8984375 19.921875 C-1.95871094 19.96054688 -1.95871094 19.96054688 -1 20 C-1.33 18.35 -1.66 16.7 -2 15 C-2.75925781 14.82984375 -3.51851562 14.6596875 -4.30078125 14.484375 C-5.29464844 14.24203125 -6.28851563 13.9996875 -7.3125 13.75 C-8.79169922 13.40195313 -8.79169922 13.40195313 -10.30078125 13.046875 C-13.3882094 11.84943543 -14.42858517 10.88362722 -16 8 C-15.875 4.875 -15.875 4.875 -15 2 C-9.96315496 -1.3578967 -5.86855225 -1.38711235 0 0 Z M-10 3 C-10.33 4.65 -10.66 6.3 -11 8 C-6.69677317 9.46939453 -2.37702633 10.77443263 2 12 C2.33 10.68 2.66 9.36 3 8 C1.68 8 0.36 8 -1 8 C-1.144375 7.360625 -1.28875 6.72125 -1.4375 6.0625 C-1.81007181 4.02454854 -1.81007181 4.02454854 -3 3 C-5.33297433 2.95907063 -7.66705225 2.95758277 -10 3 Z M8.5625 4.4375 C6.24169328 8.24362301 6.23525201 11.65846194 7 16 C8.31379818 18.73061576 8.31379818 18.73061576 11 20 C14.49392047 20.60458181 17.70724082 20.66723054 20.9375 19 C22.63437595 15.80588056 23.13222615 12.57010618 23 9 C21.66048669 6.00204165 20.9444025 4.47220125 18 3 C14.2378404 2.65165189 11.85871947 2.49357569 8.5625 4.4375 Z M26 16 C25.34 17.65 24.68 19.3 24 21 C24.99 21.33 25.98 21.66 27 22 C27 20.02 27 18.04 27 16 C26.67 16 26.34 16 26 16 Z " fill="#306092" transform="translate(122,148)"/>
<path d="M0 0 C8.67549719 -0.60409652 16.8403207 0.08715873 23.98828125 5.5078125 C28.30146492 9.93423011 28.81363611 13.94317365 29 20 C29.33 17.03 29.66 14.06 30 11 C30.33 11 30.66 11 31 11 C31.05416188 12.60379341 31.09286638 14.20811406 31.125 15.8125 C31.14820313 16.70582031 31.17140625 17.59914063 31.1953125 18.51953125 C31 21 31 21 29 24 C28.01 23.67 27.02 23.34 26 23 C25.93683594 23.53625 25.87367188 24.0725 25.80859375 24.625 C24.87193931 30.61958844 22.97118376 35.90547495 20.5625 41.4375 C20.26206787 42.13552734 19.96163574 42.83355469 19.65209961 43.55273438 C18.16957833 46.86352394 16.86480602 49.69588996 14 52 C14.2311853 51.20070068 14.2311853 51.20070068 14.46704102 50.38525391 C15.63706885 45.14880317 15.65527672 39.71806205 15.9375 34.375 C16.07768555 32.52455078 16.07768555 32.52455078 16.22070312 30.63671875 C16.64393148 22.07203315 15.44081595 16.70733401 10 10 C7.88429165 7.56437204 7.88429165 7.56437204 5.75 5.9375 C5.08484375 5.38964844 4.4196875 4.84179688 3.734375 4.27734375 C2.02102 2.93954572 2.02102 2.93954572 0 2 C0 1.34 0 0.68 0 0 Z " fill="#3D6A97" transform="translate(104,39)"/>
<path d="M0 0 C4.38834979 5.72393451 3.70815503 12.11971486 3 19 C1.9862588 22.5239575 0.68042038 25.74418551 -1 29 C-4.25 28.9375 -4.25 28.9375 -8 28 C-12.35041133 22.32029632 -12.41578785 18.01100013 -11.75 11.0625 C-11.68425781 10.18787109 -11.61851563 9.31324219 -11.55078125 8.41210938 C-11.38714266 6.27311926 -11.19633745 4.13623685 -11 2 C-3.33797592 -0.63150896 -3.33797592 -0.63150896 0 0 Z " fill="#3D6A98" transform="translate(82,63)"/>
<path d="M0 0 C3.53571429 0.53571429 3.53571429 0.53571429 5 2 C5.66 1.34 6.32 0.68 7 0 C7.01458252 0.76143311 7.02916504 1.52286621 7.04418945 2.30737305 C7.11880541 5.76791888 7.21542259 9.22751445 7.3125 12.6875 C7.33505859 13.88568359 7.35761719 15.08386719 7.38085938 16.31835938 C7.4340332 18.05375977 7.4340332 18.05375977 7.48828125 19.82421875 C7.51446533 20.88729248 7.54064941 21.95036621 7.56762695 23.0456543 C8.05451046 26.37246247 9.00050488 28.31550396 11 31 C13.12987144 31.67613196 13.12987144 31.67613196 15.4375 31.4375 C16.19933594 31.41558594 16.96117188 31.39367187 17.74609375 31.37109375 C20.2501024 30.95882196 21.88993979 30.41578234 24 29 C28.62507598 20.87836659 28.20482314 9.1117913 29 0 C29.33 0 29.66 0 30 0 C30.495 4.455 30.495 4.455 31 9 C31.33 9 31.66 9 32 9 C30.86842411 26.98815469 30.86842411 26.98815469 25.5 32.625 C20.486825 35.38224625 15.61690512 35.80625432 10 35 C6.37871326 32.3394628 4.79830931 30.35146911 4 26 C3.92233916 24.55901569 3.89203633 23.11491371 3.90234375 21.671875 C3.90556641 20.87265625 3.90878906 20.0734375 3.91210938 19.25 C3.92048828 18.425 3.92886719 17.6 3.9375 16.75 C3.94201172 15.90953125 3.94652344 15.0690625 3.95117188 14.203125 C3.96292039 12.13538599 3.98085478 10.06768376 4 8 C3.10023437 8.49113281 2.20046875 8.98226562 1.2734375 9.48828125 C-2.9379075 11.43313867 -5.44014595 11.23585452 -10 11 C-10.33 9.35 -10.66 7.7 -11 6 C-10.37351562 5.73445313 -9.74703125 5.46890625 -9.1015625 5.1953125 C-8.28429687 4.84210938 -7.46703125 4.48890625 -6.625 4.125 C-5.40683594 3.60292969 -5.40683594 3.60292969 -4.1640625 3.0703125 C-1.86197701 2.07553933 -1.86197701 2.07553933 0 0 Z " fill="#E5E9EC" transform="translate(83,97)"/>
<path d="M0 0 C2 2 2 2 2.1953125 3.9453125 C2.13020833 5.96354167 2.06510417 7.98177083 2 10 C1.67 10 1.34 10 1 10 C1 7.69 1 5.38 1 3 C0.01 3.495 0.01 3.495 -1 4 C-1.33 12.91 -1.66 21.82 -2 31 C-3.32 31 -4.64 31 -6 31 C-10.86176934 25.82145816 -14.04575123 17.80147793 -14.4375 10.75 C-14 7 -14 7 -12.5 4.5 C-8.85991277 2.31594766 -6.20345267 2.71976982 -2 3 C-1.67 2.34 -1.34 1.68 -1 1 C-0.67 0.67 -0.34 0.34 0 0 Z " fill="#D9E2EB" transform="translate(119,57)"/>
<path d="M0 0 C1.34154604 0.91723129 2.65685516 1.87449622 3.9375 2.875 C4.55625 3.28621094 5.175 3.69742188 5.8125 4.12109375 C7.73601513 5.62161365 8.80576982 6.7025984 9.9375 8.875 C10.41993964 12.92645545 10.29208795 16.81693793 9.9375 20.875 C8.9475 21.37 8.9475 21.37 7.9375 21.875 C7.92332031 21.22273438 7.90914062 20.57046875 7.89453125 19.8984375 C7.6255443 14.96943342 7.35904318 10.82953949 3.703125 7.12109375 C-3.28946786 2.18605587 -11.72915924 1.19737295 -20.0625 0.875 C-20.0625 1.535 -20.0625 2.195 -20.0625 2.875 C-19.381875 3.060625 -18.70125 3.24625 -18 3.4375 C-12.5090641 6.12455374 -7.5021187 11.23338176 -5.0625 16.875 C-5.375 19.1875 -5.375 19.1875 -6.0625 20.875 C-6.578125 20.215 -7.09375 19.555 -7.625 18.875 C-8.429375 17.885 -9.23375 16.895 -10.0625 15.875 C-10.80886719 14.9159375 -10.80886719 14.9159375 -11.5703125 13.9375 C-15.7747523 8.77483903 -20.05259521 5.70960362 -26.0625 2.875 C-25.0625 -0.125 -25.0625 -0.125 -22.953125 -1.28515625 C-15.77370522 -3.37106875 -6.71015153 -3.55512287 0 0 Z " fill="#E6ECF1" transform="translate(124.0625,38.125)"/>
<path d="M0 0 C2.0625 0.1875 2.0625 0.1875 4 1 C4.33 1.99 4.66 2.98 5 4 C4.34 4.66 3.68 5.32 3 6 C3.66 6.33 4.32 6.66 5 7 C5 13.27 5 19.54 5 26 C4.67 26 4.34 26 4 26 C4 20.06 4 14.12 4 8 C2.02 8.99 0.04 9.98 -2 11 C-4.7594775 11.34608832 -7.20155262 11.14474728 -10 11 C-10.33 9.35 -10.66 7.7 -11 6 C-10.37351562 5.73445313 -9.74703125 5.46890625 -9.1015625 5.1953125 C-8.28429687 4.84210938 -7.46703125 4.48890625 -6.625 4.125 C-5.40683594 3.60292969 -5.40683594 3.60292969 -4.1640625 3.0703125 C-1.86197701 2.07553933 -1.86197701 2.07553933 0 0 Z M6 0 C6.33 0 6.66 0 7 0 C7 6.6 7 13.2 7 20 C6.67 20 6.34 20 6 20 C5.80578562 17.04196565 5.61933814 14.08379837 5.4375 11.125 C5.38142578 10.28324219 5.32535156 9.44148438 5.26757812 8.57421875 C5.21923828 7.76855469 5.17089844 6.96289062 5.12109375 6.1328125 C5.0739624 5.38918457 5.02683105 4.64555664 4.97827148 3.87939453 C5 2 5 2 6 0 Z " fill="#CDD5DE" transform="translate(83,97)"/>
<path d="M0 0 C0.33 0 0.66 0 1 0 C1 7.26 1 14.52 1 22 C0.34 22 -0.32 22 -1 22 C-2.18483019 19.82075876 -3.34738133 17.63370585 -4.5 15.4375 C-4.83386719 14.82841797 -5.16773437 14.21933594 -5.51171875 13.59179688 C-7.76828463 9.23984839 -8.36065905 6.00414429 -8 1 C-5.36 1.33 -2.72 1.66 0 2 C0 1.34 0 0.68 0 0 Z " fill="#3B6997" transform="translate(116,64)"/>
<path d="M0 0 C4.29 0 8.58 0 13 0 C12 5 12 5 10.29296875 6.328125 C9.59816406 6.63234375 8.90335938 6.9365625 8.1875 7.25 C7.50042969 7.56453125 6.81335938 7.8790625 6.10546875 8.203125 C1.62126835 9.90029918 -2.18883976 10.09252231 -7 10 C-7 9.67 -7 9.34 -7 9 C-5.35 8.67 -3.7 8.34 -2 8 C-3.32 7.67 -4.64 7.34 -6 7 C-6 5.35 -6 3.7 -6 2 C-2.04 2 1.92 2 6 2 C3.03 1.505 3.03 1.505 0 1 C0 0.67 0 0.34 0 0 Z " fill="#DFE1E2" transform="translate(122,94)"/>
<path d="M0 0 C0.33 0 0.66 0 1 0 C0.96519531 1.22976562 0.93039063 2.45953125 0.89453125 3.7265625 C0.86637955 5.35936127 0.83908087 6.9921749 0.8125 8.625 C0.78736328 9.43324219 0.76222656 10.24148437 0.73632812 11.07421875 C0.67488609 16.11246574 1.04785315 19.70596822 4 24 C7.5693717 25.44967902 7.5693717 25.44967902 11 26 C9.68 26.33 8.36 26.66 7 27 C7 27.66 7 28.32 7 29 C6.01 29.556875 6.01 29.556875 5 30.125 C0.7193085 32.80043219 -2.52363498 36.36836309 -6 40 C-7.32 39.01 -8.64 38.02 -10 37 C-8.948125 36.505 -8.948125 36.505 -7.875 36 C-3.99347129 33.29980612 -1.66623758 29.85734028 1 26 C0.48824219 25.39800781 -0.02351563 24.79601562 -0.55078125 24.17578125 C-2.72074327 19.42058145 -1.82643885 15.27509331 -1.1875 10.1875 C-1.07857422 9.20845703 -0.96964844 8.22941406 -0.85742188 7.22070312 C-0.58712921 4.81157287 -0.30088218 2.40546884 0 0 Z " fill="#D4DEE8" transform="translate(70,66)"/>
<path d="M0 0 C-0.71448609 7.85934704 -2.95450342 14.73766199 -6 22 C-6.99 21.67 -7.98 21.34 -9 21 C-8.28848416 18.62828053 -7.57616298 16.2568526 -6.859375 13.88671875 C-6.29098227 11.97743591 -5.73859732 10.06330707 -5.203125 8.14453125 C-4.95046875 7.25121094 -4.6978125 6.35789062 -4.4375 5.4375 C-4.20933594 4.61121094 -3.98117188 3.78492187 -3.74609375 2.93359375 C-2.95554526 0.88479008 -2.35353156 0 0 0 Z " fill="#E5EAEE" transform="translate(133,61)"/>
<path d="M0 0 C4.69888431 0.14239043 7.47769702 2.43147008 10.6171875 5.6796875 C13.25290814 10.10233738 12.51336848 15.037438 12 20 C11.34 20.33 10.68 20.66 10 21 C9.98582031 20.34773438 9.97164062 19.69546875 9.95703125 19.0234375 C9.60684369 12.60648703 8.74126976 9.4104835 4 5 C1.85019503 3.62745412 1.85019503 3.62745412 0 3 C0 2.01 0 1.02 0 0 Z " fill="#EFF1F2" transform="translate(122,39)"/>
<path d="M0 0 C2.55773225 -0.30549027 4.82158698 -0.41852409 7.375 -0.375 C8.04789063 -0.38660156 8.72078125 -0.39820313 9.4140625 -0.41015625 C13.56182432 -0.38566159 15.99152743 0.08409582 19 3 C18.67 3.66 18.34 4.32 18 5 C11.4 4.34 4.8 3.68 -2 3 C-1.34 2.01 -0.68 1.02 0 0 Z " fill="#DDE1E5" transform="translate(104,36)"/>
<path d="M0 0 C1.10844919 3.32534757 0.84454356 5.62182575 0 9 C0.66 9 1.32 9 2 9 C1.67 9.99 1.34 10.98 1 12 C0.79040462 13.40585625 0.61520745 14.81704993 0.46484375 16.23046875 C0.37783203 17.03291016 0.29082031 17.83535156 0.20117188 18.66210938 C0.11416016 19.49548828 0.02714844 20.32886719 -0.0625 21.1875 C-0.15337891 22.03248047 -0.24425781 22.87746094 -0.33789062 23.74804688 C-0.5615612 25.83171485 -0.78117151 27.91581795 -1 30 C-1.66 30 -2.32 30 -3 30 C-2.88986124 25.93695446 -2.75929135 21.87481333 -2.625 17.8125 C-2.5940625 16.66201172 -2.563125 15.51152344 -2.53125 14.32617188 C-2.49257812 13.21435547 -2.45390625 12.10253906 -2.4140625 10.95703125 C-2.3826416 9.93585205 -2.3512207 8.91467285 -2.31884766 7.86254883 C-1.99123205 4.92128312 -1.22687806 2.67975997 0 0 Z " fill="#F6F8FA" transform="translate(70,54)"/>
<path d="M0 0 C1.46373047 0.02707031 1.46373047 0.02707031 2.95703125 0.0546875 C3.69308594 0.07789063 4.42914063 0.10109375 5.1875 0.125 C5.1875 0.455 5.1875 0.785 5.1875 1.125 C4.47722656 1.17398438 3.76695313 1.22296875 3.03515625 1.2734375 C1.65650391 1.38558594 1.65650391 1.38558594 0.25 1.5 C-0.66652344 1.56960937 -1.58304688 1.63921875 -2.52734375 1.7109375 C-3.65849609 1.91589844 -3.65849609 1.91589844 -4.8125 2.125 C-5.1425 2.785 -5.4725 3.445 -5.8125 4.125 C-6.92625 4.681875 -8.04 5.23875 -9.1875 5.8125 C-13.4289363 8.10304979 -14.34460498 10.63496818 -15.8125 15.125 C-16.1425 14.135 -16.4725 13.145 -16.8125 12.125 C-17.4725 12.125 -18.1325 12.125 -18.8125 12.125 C-17.41556939 7.23574285 -14.87262438 5.07058043 -10.8125 2.125 C-7.06562708 0.30168893 -4.14934825 -0.0999843 0 0 Z " fill="#E0E3E6" transform="translate(61.8125,36.875)"/>
<path d="M0 0 C3.37108535 2.99652031 5.46169968 6.27700009 7.76171875 10.09375 C9.2452627 12.3775653 10.96791923 14.19370598 13 16 C10.875 16.4375 10.875 16.4375 8 16 C4.52725298 12.91783089 1.83236123 9.26690689 0 5 C-0.125 2.25 -0.125 2.25 0 0 Z " fill="#E1E5EA" transform="translate(50,90)"/>
<path d="M0 0 C0.33 0 0.66 0 1 0 C1.55353075 16.8929385 1.55353075 16.8929385 -2 24 C-2.99 23.67 -3.98 23.34 -5 23 C-4.690625 22.0925 -4.38125 21.185 -4.0625 20.25 C-2.76521284 15.81382225 -2.57980576 11.36671726 -2.34375 6.76953125 C-2.00662113 4.05334527 -1.3824234 2.33562664 0 0 Z " fill="#D4DEE8" transform="translate(87,66)"/>
<path d="M0 0 C2.125 0.375 2.125 0.375 4 1 C3.00456145 3.624338 2.02807645 4.97605244 -0.125 6.8125 C-4.15741546 8.47806291 -6.7424581 7.793779 -11 7 C-8 5 -8 5 -4.9375 3.5 C-1.96887524 2.17432658 -1.96887524 2.17432658 0 0 Z " fill="#4D77A1" transform="translate(83,97)"/>
<path d="M0 0 C6.93 0.495 6.93 0.495 14 1 C10.6133629 4.3866371 9.8662468 4.41963254 5.3125 4.6875 C3.82169922 4.78611328 3.82169922 4.78611328 2.30078125 4.88671875 C1.54152344 4.92410156 0.78226562 4.96148437 0 5 C0 3.35 0 1.7 0 0 Z " fill="#527AA3" transform="translate(116,96)"/>
<path d="M0 0 C-4.26041226 3.76354036 -8.51848911 7.49881962 -13 11 C-13.99 10.01 -14.98 9.02 -16 8 C-14.8553125 7.38125 -14.8553125 7.38125 -13.6875 6.75 C-11.01833312 5.01193785 -9.86277251 3.51069338 -8 1 C-4.90843065 -1.09428892 -3.495685 -1.01440546 0 0 Z " fill="#E0E3E6" transform="translate(76,95)"/>
<path d="M0 0 C2 2 2 2 2.1953125 3.9453125 C2.13020833 5.96354167 2.06510417 7.98177083 2 10 C1.67 10 1.34 10 1 10 C1 7.69 1 5.38 1 3 C0.01 3.33 -0.98 3.66 -2 4 C-1 1 -1 1 0 0 Z M-3 4 C-2.67 4.99 -2.34 5.98 -2 7 C-3.25 8.5625 -3.25 8.5625 -5 10 C-7.1875 9.6875 -7.1875 9.6875 -9 9 C-9 8.01 -9 7.02 -9 6 C-7.02 5.34 -5.04 4.68 -3 4 Z " fill="#A0B6CC" transform="translate(119,57)"/>
<path d="M0 0 C0.33 0 0.66 0 1 0 C1.33 2.97 1.66 5.94 2 9 C2.33 9 2.66 9 3 9 C2.67 12.3 2.34 15.6 2 19 C1.01 19 0.02 19 -1 19 C-0.67 12.73 -0.34 6.46 0 0 Z " fill="#CBD2D8" transform="translate(112,97)"/>
<path d="M0 0 C0.33 8.25 0.66 16.5 1 25 C0.34 25 -0.32 25 -1 25 C-1 18.07 -1 11.14 -1 4 C-1.99 3.67 -2.98 3.34 -4 3 C-1.125 0 -1.125 0 0 0 Z " fill="#FBFBFC" transform="translate(89,100)"/>
<path d="M0 0 C1.0209375 0.2165625 1.0209375 0.2165625 2.0625 0.4375 C1.80859375 2.33984375 1.80859375 2.33984375 1.0625 4.4375 C-0.71484375 5.37890625 -0.71484375 5.37890625 -2.875 6 C-6.38043593 7.02427438 -6.76752062 7.18253093 -8.9375 10.4375 C-9.2675 9.4475 -9.5975 8.4575 -9.9375 7.4375 C-3.86310175 0.57535558 -3.86310175 0.57535558 0 0 Z " fill="#2C2C2C" transform="translate(76.9375,94.5625)"/>
<path d="M0 0 C0.66 0 1.32 0 2 0 C1.67 5.94 1.34 11.88 1 18 C0.34 17.67 -0.32 17.34 -1 17 C-1.02691685 14.54159395 -1.04679802 12.08348118 -1.0625 9.625 C-1.07087891 8.92632812 -1.07925781 8.22765625 -1.08789062 7.5078125 C-1.11328125 2.2265625 -1.11328125 2.2265625 0 0 Z " fill="#F6F6F7" transform="translate(43,49)"/>
<path d="M0 0 C2.27076842 -0.02699725 4.54162821 -0.04639453 6.8125 -0.0625 C8.07707031 -0.07410156 9.34164062 -0.08570313 10.64453125 -0.09765625 C14 0 14 0 17 1 C17 1.66 17 2.32 17 3 C11.06 2.67 5.12 2.34 -1 2 C-0.67 1.34 -0.34 0.68 0 0 Z " fill="#F5F7F8" transform="translate(57,38)"/>
<path d="M0 0 C1.8683212 2.80248179 2.45416535 4.30554926 3.125 7.5 C3.29257812 8.2734375 3.46015625 9.046875 3.6328125 9.84375 C4 12 4 12 4 15 C3.34 15.66 2.68 16.32 2 17 C1.01 13.37 0.02 9.74 -1 6 C-0.34 6 0.32 6 1 6 C0.67 4.02 0.34 2.04 0 0 Z " fill="#D1D7DE" transform="translate(47,76)"/>
<path d="M0 0 C0.66 0 1.32 0 2 0 C2 5.28 2 10.56 2 16 C1.67 16 1.34 16 1 16 C0.67 14.35 0.34 12.7 0 11 C-0.33 11 -0.66 11 -1 11 C-1.02688151 9.35425434 -1.04634123 7.70838587 -1.0625 6.0625 C-1.07410156 5.14597656 -1.08570312 4.22945313 -1.09765625 3.28515625 C-1 1 -1 1 0 0 Z " fill="#DEE6ED" transform="translate(118,60)"/>
<path d="M0 0 C-1 2 -1 2 -3.875 3.0625 C-4.90625 3.371875 -5.9375 3.68125 -7 4 C-7.99 4.33 -8.98 4.66 -10 5 C-10.33 7.31 -10.66 9.62 -11 12 C-11.33 12 -11.66 12 -12 12 C-12.48 4.8 -12.48 4.8 -10.5 1.5 C-6.85991277 -0.68405234 -4.20345267 -0.28023018 0 0 Z " fill="#D5DFE9" transform="translate(117,60)"/>
<path d="M0 0 C5.61 0 11.22 0 17 0 C16.01 1.32 15.02 2.64 14 4 C11.40625 4.27734375 11.40625 4.27734375 8.5 3.9375 C7.5409375 3.84339844 6.581875 3.74929687 5.59375 3.65234375 C3 3 3 3 0 0 Z " fill="#C9CCCF" transform="translate(84,37)"/>
<path d="M0 0 C0.515625 0.804375 1.03125 1.60875 1.5625 2.4375 C4.63205757 5.66447078 6.64868459 5.74896257 11 6 C11 6.33 11 6.66 11 7 C9.02 7 7.04 7 5 7 C5 7.66 5 8.32 5 9 C2.13302508 7.71480435 0.02392288 6.42870746 -2 4 C-2 3.34 -2 2.68 -2 2 C-1.34 2 -0.68 2 0 2 C0 1.34 0 0.68 0 0 Z " fill="#D0D7DE" transform="translate(90,123)"/>
<path d="M0 0 C0.3403125 0.9590625 0.3403125 0.9590625 0.6875 1.9375 C1.85250896 4.27193661 1.85250896 4.27193661 4.625 4.75 C5.40875 4.8325 6.1925 4.915 7 5 C6.67 5.66 6.34 6.32 6 7 C4.35 7 2.7 7 1 7 C0.67 8.32 0.34 9.64 0 11 C-0.33 11 -0.66 11 -1 11 C-1.02688151 9.35425434 -1.04634123 7.70838587 -1.0625 6.0625 C-1.07410156 5.14597656 -1.08570312 4.22945313 -1.09765625 3.28515625 C-1 1 -1 1 0 0 Z " fill="#FAFAFB" transform="translate(114,96)"/>
<path d="M0 0 C0.33 0 0.66 0 1 0 C1.22786458 2.05078125 1.45572917 4.1015625 1.68359375 6.15234375 C1.81886614 8.01140229 1.81886614 8.01140229 3 9 C3.04063832 10.66617115 3.042721 12.33388095 3 14 C2.34 14 1.68 14 1 14 C-0.75328507 10.97159851 -1.25093193 8.80125633 -1.1875 5.3125 C-1.18105469 4.52488281 -1.17460938 3.73726563 -1.16796875 2.92578125 C-1 1 -1 1 0 0 Z " fill="#EEF2F6" transform="translate(107,64)"/>
<path d="M0 0 C0.33 0.66 0.66 1.32 1 2 C1.66 2 2.32 2 3 2 C2.30058404 5.14737182 1.23921302 8.02588876 0 11 C-0.99 10.67 -1.98 10.34 -3 10 C-2.01 6.7 -1.02 3.4 0 0 Z " fill="#D5DADF" transform="translate(127,72)"/>
<path d="M0 0 C0.99386719 0.00902344 1.98773438 0.01804688 3.01171875 0.02734375 C4.15060547 0.04474609 4.15060547 0.04474609 5.3125 0.0625 C5.3125 0.3925 5.3125 0.7225 5.3125 1.0625 C4.60222656 1.11148438 3.89195313 1.16046875 3.16015625 1.2109375 C1.78150391 1.32308594 1.78150391 1.32308594 0.375 1.4375 C-0.54152344 1.50710937 -1.45804688 1.57671875 -2.40234375 1.6484375 C-3.53349609 1.85339844 -3.53349609 1.85339844 -4.6875 2.0625 C-5.0175 2.7225 -5.3475 3.3825 -5.6875 4.0625 C-7.33113134 4.78409424 -8.99800386 5.45601421 -10.6875 6.0625 C-11.0175 5.4025 -11.3475 4.7425 -11.6875 4.0625 C-8.13167064 0.16802023 -5.13031675 -0.06035667 0 0 Z " fill="#CCCDCF" transform="translate(61.6875,36.9375)"/>
<path d="M0 0 C1.13643966 3.40931897 0.86747764 4.00335456 -0.4375 7.1875 C-0.72496094 7.90292969 -1.01242188 8.61835937 -1.30859375 9.35546875 C-1.53675781 9.89816406 -1.76492187 10.44085938 -2 11 C-2.99 10.34 -3.98 9.68 -5 9 C-3.375 2.25 -3.375 2.25 0 0 Z " fill="#DAE2EB" transform="translate(74,46)"/>
<path d="M0 0 C0.33 0 0.66 0 1 0 C1.24803781 2.79117245 1.47414334 5.58115074 1.6875 8.375 C1.79674805 9.56609375 1.79674805 9.56609375 1.90820312 10.78125 C2.07421875 13.0859375 2.07421875 13.0859375 2 17 C1.01 17.66 0.02 18.32 -1 19 C-0.67 12.73 -0.34 6.46 0 0 Z " fill="#C5CFDB" transform="translate(44,54)"/>
<path d="M0 0 C4.24822374 0.47202486 6.19989709 2.96655518 9 6 C6.75 6.25 6.75 6.25 4 6 C1.6875 4.125 1.6875 4.125 0 2 C0 1.34 0 0.68 0 0 Z " fill="#EDEFF1" transform="translate(54,100)"/>
<path d="M0 0 C2.64 0 5.28 0 8 0 C8 0.99 8 1.98 8 3 C5.36 3 2.72 3 0 3 C0 2.01 0 1.02 0 0 Z " fill="#D9D9D9" transform="translate(73,105)"/>
<path d="M0 0 C2.0625 0.4375 2.0625 0.4375 4 1 C4 1.66 4 2.32 4 3 C0.32589215 4.17571451 -3.16929183 4.07366746 -7 4 C-7 3.67 -7 3.34 -7 3 C-5.5459375 2.5359375 -5.5459375 2.5359375 -4.0625 2.0625 C-1.15934208 1.30476658 -1.15934208 1.30476658 0 0 Z " fill="#CED0D2" transform="translate(122,100)"/>
<path d="M0 0 C2.8203125 -0.29296875 2.8203125 -0.29296875 6.125 -0.1875 C7.76855469 -0.14689453 7.76855469 -0.14689453 9.4453125 -0.10546875 C10.28835937 -0.07066406 11.13140625 -0.03585938 12 0 C12 0.33 12 0.66 12 1 C7.38 1.66 2.76 2.32 -2 3 C-1.34 2.01 -0.68 1.02 0 0 Z " fill="#FBFCFC" transform="translate(83,38)"/>
<path d="M0 0 C0.99 0 1.98 0 3 0 C2.3125 1.9375 2.3125 1.9375 1 4 C-1.625 4.75 -1.625 4.75 -4 5 C-2.1875 2.5 -2.1875 2.5 0 0 Z " fill="#3D6A98" transform="translate(84,98)"/>
</svg>
